<mxfile host="app.diagrams.net" modified="2023-10-08T10:11:13.846Z" agent="Mozilla/5.0 (Windows NT 10.0; Win64; x64; rv:109.0) Gecko/20100101 Firefox/118.0" version="22.0.4" etag="r8ebqG22OhrE5ScrZ97r" type="github">
  <diagram name="Seite-1" id="OM7L8ei8c2Mwg7dozHId">
    <mxGraphModel>
      <root>
        <mxCell id="0" />
        <mxCell id="1" parent="0" />
      </root>
    </mxGraphModel>
  </diagram>
</mxfile>
